STARTFONT 2.1
COMMENT Recovered from n43xms.qfasl (MIT CADR System 46 serialized QFASL FONT object)
FONT MIT-CADR-QFASL-N43XMS
SIZE 43 72 72
FONTBOUNDINGBOX 62 43 0 -8
STARTPROPERTIES 2
FONT_ASCENT 35
FONT_DESCENT 8
ENDPROPERTIES
CHARS 128
STARTCHAR C0000
ENCODING -1 0
SWIDTH 0 0
DWIDTH 0 0
BBX 0 43 0 -8
BITMAP
00
00
00
00
00
00
00
00
00
00
00
00
00
00
00
00
00
00
00
00
00
00
00
00
00
00
00
00
00
00
00
00
00
00
00
00
00
00
00
00
00
00
00
ENDCHAR
STARTCHAR C0001
ENCODING -1 1
SWIDTH 0 0
DWIDTH 0 0
BBX 0 43 0 -8
BITMAP
00
00
00
00
00
00
00
00
00
00
00
00
00
00
00
00
00
00
00
00
00
00
00
00
00
00
00
00
00
00
00
00
00
00
00
00
00
00
00
00
00
00
00
ENDCHAR
STARTCHAR C0002
ENCODING -1 2
SWIDTH 0 0
DWIDTH 0 0
BBX 0 43 0 -8
BITMAP
00
00
00
00
00
00
00
00
00
00
00
00
00
00
00
00
00
00
00
00
00
00
00
00
00
00
00
00
00
00
00
00
00
00
00
00
00
00
00
00
00
00
00
ENDCHAR
STARTCHAR C0003
ENCODING -1 3
SWIDTH 0 0
DWIDTH 0 0
BBX 0 43 0 -8
BITMAP
00
00
00
00
00
00
00
00
00
00
00
00
00
00
00
00
00
00
00
00
00
00
00
00
00
00
00
00
00
00
00
00
00
00
00
00
00
00
00
00
00
00
00
ENDCHAR
STARTCHAR C0004
ENCODING -1 4
SWIDTH 0 0
DWIDTH 0 0
BBX 0 43 0 -8
BITMAP
00
00
00
00
00
00
00
00
00
00
00
00
00
00
00
00
00
00
00
00
00
00
00
00
00
00
00
00
00
00
00
00
00
00
00
00
00
00
00
00
00
00
00
ENDCHAR
STARTCHAR C0005
ENCODING -1 5
SWIDTH 0 0
DWIDTH 0 0
BBX 0 43 0 -8
BITMAP
00
00
00
00
00
00
00
00
00
00
00
00
00
00
00
00
00
00
00
00
00
00
00
00
00
00
00
00
00
00
00
00
00
00
00
00
00
00
00
00
00
00
00
ENDCHAR
STARTCHAR C0006
ENCODING -1 6
SWIDTH 0 0
DWIDTH 0 0
BBX 0 43 0 -8
BITMAP
00
00
00
00
00
00
00
00
00
00
00
00
00
00
00
00
00
00
00
00
00
00
00
00
00
00
00
00
00
00
00
00
00
00
00
00
00
00
00
00
00
00
00
ENDCHAR
STARTCHAR C0007
ENCODING -1 7
SWIDTH 0 0
DWIDTH 0 0
BBX 0 43 0 -8
BITMAP
00
00
00
00
00
00
00
00
00
00
00
00
00
00
00
00
00
00
00
00
00
00
00
00
00
00
00
00
00
00
00
00
00
00
00
00
00
00
00
00
00
00
00
ENDCHAR
STARTCHAR C0008
ENCODING -1 8
SWIDTH 0 0
DWIDTH 0 0
BBX 0 43 0 -8
BITMAP
00
00
00
00
00
00
00
00
00
00
00
00
00
00
00
00
00
00
00
00
00
00
00
00
00
00
00
00
00
00
00
00
00
00
00
00
00
00
00
00
00
00
00
ENDCHAR
STARTCHAR C0009
ENCODING -1 9
SWIDTH 0 0
DWIDTH 0 0
BBX 0 43 0 -8
BITMAP
00
00
00
00
00
00
00
00
00
00
00
00
00
00
00
00
00
00
00
00
00
00
00
00
00
00
00
00
00
00
00
00
00
00
00
00
00
00
00
00
00
00
00
ENDCHAR
STARTCHAR C000A
ENCODING -1 10
SWIDTH 0 0
DWIDTH 0 0
BBX 0 43 0 -8
BITMAP
00
00
00
00
00
00
00
00
00
00
00
00
00
00
00
00
00
00
00
00
00
00
00
00
00
00
00
00
00
00
00
00
00
00
00
00
00
00
00
00
00
00
00
ENDCHAR
STARTCHAR C000B
ENCODING -1 11
SWIDTH 0 0
DWIDTH 0 0
BBX 0 43 0 -8
BITMAP
00
00
00
00
00
00
00
00
00
00
00
00
00
00
00
00
00
00
00
00
00
00
00
00
00
00
00
00
00
00
00
00
00
00
00
00
00
00
00
00
00
00
00
ENDCHAR
STARTCHAR C000C
ENCODING -1 12
SWIDTH 0 0
DWIDTH 0 0
BBX 0 43 0 -8
BITMAP
00
00
00
00
00
00
00
00
00
00
00
00
00
00
00
00
00
00
00
00
00
00
00
00
00
00
00
00
00
00
00
00
00
00
00
00
00
00
00
00
00
00
00
ENDCHAR
STARTCHAR C000D
ENCODING -1 13
SWIDTH 0 0
DWIDTH 0 0
BBX 0 43 0 -8
BITMAP
00
00
00
00
00
00
00
00
00
00
00
00
00
00
00
00
00
00
00
00
00
00
00
00
00
00
00
00
00
00
00
00
00
00
00
00
00
00
00
00
00
00
00
ENDCHAR
STARTCHAR C000E
ENCODING -1 14
SWIDTH 0 0
DWIDTH 0 0
BBX 0 43 0 -8
BITMAP
00
00
00
00
00
00
00
00
00
00
00
00
00
00
00
00
00
00
00
00
00
00
00
00
00
00
00
00
00
00
00
00
00
00
00
00
00
00
00
00
00
00
00
ENDCHAR
STARTCHAR C000F
ENCODING -1 15
SWIDTH 0 0
DWIDTH 0 0
BBX 0 43 0 -8
BITMAP
00
00
00
00
00
00
00
00
00
00
00
00
00
00
00
00
00
00
00
00
00
00
00
00
00
00
00
00
00
00
00
00
00
00
00
00
00
00
00
00
00
00
00
ENDCHAR
STARTCHAR C0010
ENCODING -1 16
SWIDTH 0 0
DWIDTH 0 0
BBX 0 43 0 -8
BITMAP
00
00
00
00
00
00
00
00
00
00
00
00
00
00
00
00
00
00
00
00
00
00
00
00
00
00
00
00
00
00
00
00
00
00
00
00
00
00
00
00
00
00
00
ENDCHAR
STARTCHAR C0011
ENCODING -1 17
SWIDTH 0 0
DWIDTH 0 0
BBX 0 43 0 -8
BITMAP
00
00
00
00
00
00
00
00
00
00
00
00
00
00
00
00
00
00
00
00
00
00
00
00
00
00
00
00
00
00
00
00
00
00
00
00
00
00
00
00
00
00
00
ENDCHAR
STARTCHAR C0012
ENCODING -1 18
SWIDTH 0 0
DWIDTH 0 0
BBX 0 43 0 -8
BITMAP
00
00
00
00
00
00
00
00
00
00
00
00
00
00
00
00
00
00
00
00
00
00
00
00
00
00
00
00
00
00
00
00
00
00
00
00
00
00
00
00
00
00
00
ENDCHAR
STARTCHAR C0013
ENCODING -1 19
SWIDTH 0 0
DWIDTH 0 0
BBX 0 43 0 -8
BITMAP
00
00
00
00
00
00
00
00
00
00
00
00
00
00
00
00
00
00
00
00
00
00
00
00
00
00
00
00
00
00
00
00
00
00
00
00
00
00
00
00
00
00
00
ENDCHAR
STARTCHAR C0014
ENCODING -1 20
SWIDTH 0 0
DWIDTH 0 0
BBX 0 43 0 -8
BITMAP
00
00
00
00
00
00
00
00
00
00
00
00
00
00
00
00
00
00
00
00
00
00
00
00
00
00
00
00
00
00
00
00
00
00
00
00
00
00
00
00
00
00
00
ENDCHAR
STARTCHAR C0015
ENCODING -1 21
SWIDTH 0 0
DWIDTH 0 0
BBX 0 43 0 -8
BITMAP
00
00
00
00
00
00
00
00
00
00
00
00
00
00
00
00
00
00
00
00
00
00
00
00
00
00
00
00
00
00
00
00
00
00
00
00
00
00
00
00
00
00
00
ENDCHAR
STARTCHAR C0016
ENCODING -1 22
SWIDTH 0 0
DWIDTH 0 0
BBX 0 43 0 -8
BITMAP
00
00
00
00
00
00
00
00
00
00
00
00
00
00
00
00
00
00
00
00
00
00
00
00
00
00
00
00
00
00
00
00
00
00
00
00
00
00
00
00
00
00
00
ENDCHAR
STARTCHAR C0017
ENCODING -1 23
SWIDTH 0 0
DWIDTH 0 0
BBX 0 43 0 -8
BITMAP
00
00
00
00
00
00
00
00
00
00
00
00
00
00
00
00
00
00
00
00
00
00
00
00
00
00
00
00
00
00
00
00
00
00
00
00
00
00
00
00
00
00
00
ENDCHAR
STARTCHAR C0018
ENCODING -1 24
SWIDTH 0 0
DWIDTH 0 0
BBX 0 43 0 -8
BITMAP
00
00
00
00
00
00
00
00
00
00
00
00
00
00
00
00
00
00
00
00
00
00
00
00
00
00
00
00
00
00
00
00
00
00
00
00
00
00
00
00
00
00
00
ENDCHAR
STARTCHAR C0019
ENCODING -1 25
SWIDTH 0 0
DWIDTH 0 0
BBX 0 43 0 -8
BITMAP
00
00
00
00
00
00
00
00
00
00
00
00
00
00
00
00
00
00
00
00
00
00
00
00
00
00
00
00
00
00
00
00
00
00
00
00
00
00
00
00
00
00
00
ENDCHAR
STARTCHAR C001A
ENCODING -1 26
SWIDTH 0 0
DWIDTH 0 0
BBX 0 43 0 -8
BITMAP
00
00
00
00
00
00
00
00
00
00
00
00
00
00
00
00
00
00
00
00
00
00
00
00
00
00
00
00
00
00
00
00
00
00
00
00
00
00
00
00
00
00
00
ENDCHAR
STARTCHAR C001B
ENCODING -1 27
SWIDTH 0 0
DWIDTH 0 0
BBX 0 43 0 -8
BITMAP
00
00
00
00
00
00
00
00
00
00
00
00
00
00
00
00
00
00
00
00
00
00
00
00
00
00
00
00
00
00
00
00
00
00
00
00
00
00
00
00
00
00
00
ENDCHAR
STARTCHAR C001C
ENCODING -1 28
SWIDTH 0 0
DWIDTH 0 0
BBX 0 43 0 -8
BITMAP
00
00
00
00
00
00
00
00
00
00
00
00
00
00
00
00
00
00
00
00
00
00
00
00
00
00
00
00
00
00
00
00
00
00
00
00
00
00
00
00
00
00
00
ENDCHAR
STARTCHAR C001D
ENCODING -1 29
SWIDTH 0 0
DWIDTH 0 0
BBX 0 43 0 -8
BITMAP
00
00
00
00
00
00
00
00
00
00
00
00
00
00
00
00
00
00
00
00
00
00
00
00
00
00
00
00
00
00
00
00
00
00
00
00
00
00
00
00
00
00
00
ENDCHAR
STARTCHAR C001E
ENCODING -1 30
SWIDTH 0 0
DWIDTH 0 0
BBX 0 43 0 -8
BITMAP
00
00
00
00
00
00
00
00
00
00
00
00
00
00
00
00
00
00
00
00
00
00
00
00
00
00
00
00
00
00
00
00
00
00
00
00
00
00
00
00
00
00
00
ENDCHAR
STARTCHAR C001F
ENCODING -1 31
SWIDTH 0 0
DWIDTH 0 0
BBX 0 43 0 -8
BITMAP
00
00
00
00
00
00
00
00
00
00
00
00
00
00
00
00
00
00
00
00
00
00
00
00
00
00
00
00
00
00
00
00
00
00
00
00
00
00
00
00
00
00
00
ENDCHAR
STARTCHAR C0020
ENCODING -1 32
SWIDTH 442 0
DWIDTH 19 0
BBX 31 43 0 -8
BITMAP
00000000
00000000
00000000
00000000
00000000
00000000
00000000
00000000
00000000
00000000
00000000
00000000
00000000
00000000
00000000
00000000
00000000
00000000
00000000
00000000
00000000
00000000
00000000
00000000
00000000
00000000
00000000
00000000
00000000
00000000
00000000
00000000
00000000
00000000
00000000
00000000
00000000
00000000
00000000
00000000
00000000
00000000
00000000
ENDCHAR
STARTCHAR C0021
ENCODING -1 33
SWIDTH 0 0
DWIDTH 0 0
BBX 0 43 0 -8
BITMAP
00
00
00
00
00
00
00
00
00
00
00
00
00
00
00
00
00
00
00
00
00
00
00
00
00
00
00
00
00
00
00
00
00
00
00
00
00
00
00
00
00
00
00
ENDCHAR
STARTCHAR C0022
ENCODING -1 34
SWIDTH 0 0
DWIDTH 0 0
BBX 0 43 0 -8
BITMAP
00
00
00
00
00
00
00
00
00
00
00
00
00
00
00
00
00
00
00
00
00
00
00
00
00
00
00
00
00
00
00
00
00
00
00
00
00
00
00
00
00
00
00
ENDCHAR
STARTCHAR C0023
ENCODING -1 35
SWIDTH 0 0
DWIDTH 0 0
BBX 0 43 0 -8
BITMAP
00
00
00
00
00
00
00
00
00
00
00
00
00
00
00
00
00
00
00
00
00
00
00
00
00
00
00
00
00
00
00
00
00
00
00
00
00
00
00
00
00
00
00
ENDCHAR
STARTCHAR C0024
ENCODING -1 36
SWIDTH 0 0
DWIDTH 0 0
BBX 0 43 0 -8
BITMAP
00
00
00
00
00
00
00
00
00
00
00
00
00
00
00
00
00
00
00
00
00
00
00
00
00
00
00
00
00
00
00
00
00
00
00
00
00
00
00
00
00
00
00
ENDCHAR
STARTCHAR C0025
ENCODING -1 37
SWIDTH 0 0
DWIDTH 0 0
BBX 0 43 0 -8
BITMAP
00
00
00
00
00
00
00
00
00
00
00
00
00
00
00
00
00
00
00
00
00
00
00
00
00
00
00
00
00
00
00
00
00
00
00
00
00
00
00
00
00
00
00
ENDCHAR
STARTCHAR C0026
ENCODING -1 38
SWIDTH 0 0
DWIDTH 0 0
BBX 0 43 0 -8
BITMAP
00
00
00
00
00
00
00
00
00
00
00
00
00
00
00
00
00
00
00
00
00
00
00
00
00
00
00
00
00
00
00
00
00
00
00
00
00
00
00
00
00
00
00
ENDCHAR
STARTCHAR C0027
ENCODING -1 39
SWIDTH 256 0
DWIDTH 11 0
BBX 31 43 0 -8
BITMAP
00000000
00000000
00000000
00000000
08000000
1C000000
7F000000
1C000000
1C000000
3E000000
1C000000
08000000
00000000
00000000
00000000
00000000
00000000
00000000
00000000
00000000
00000000
00000000
00000000
00000000
00000000
00000000
00000000
00000000
00000000
00000000
00000000
00000000
00000000
00000000
00000000
00000000
00000000
00000000
00000000
00000000
00000000
00000000
00000000
ENDCHAR
STARTCHAR C0028
ENCODING -1 40
SWIDTH 349 0
DWIDTH 15 0
BBX 31 43 0 -8
BITMAP
00700000
01E00000
03C00000
07C00000
07800000
0F800000
0F800000
1F800000
1F000000
3F000000
3F000000
7F000000
3F000000
1E000000
1E000000
0E000000
0E000000
0E000000
0E000000
0E000000
1E000000
1E000000
3F000000
7F000000
3F000000
3F000000
1F000000
1F800000
0F800000
0F800000
07800000
07C00000
03C00000
01E00000
00700000
00000000
00000000
00000000
00000000
00000000
00000000
00000000
00000000
ENDCHAR
STARTCHAR C0029
ENCODING -1 41
SWIDTH 349 0
DWIDTH 15 0
BBX 31 43 0 -8
BITMAP
70000000
3C000000
1E000000
1F000000
0F000000
0F800000
0F800000
0FC00000
07C00000
07E00000
07E00000
07F00000
07E00000
03C00000
03C00000
03800000
03800000
03800000
03800000
03800000
03C00000
03C00000
07E00000
07F00000
07E00000
07E00000
07C00000
0FC00000
0F800000
0F800000
0F000000
1F000000
1E000000
3C000000
70000000
00000000
00000000
00000000
00000000
00000000
00000000
00000000
00000000
ENDCHAR
STARTCHAR C002A
ENCODING -1 42
SWIDTH 0 0
DWIDTH 0 0
BBX 0 43 0 -8
BITMAP
00
00
00
00
00
00
00
00
00
00
00
00
00
00
00
00
00
00
00
00
00
00
00
00
00
00
00
00
00
00
00
00
00
00
00
00
00
00
00
00
00
00
00
ENDCHAR
STARTCHAR C002B
ENCODING -1 43
SWIDTH 0 0
DWIDTH 0 0
BBX 0 43 0 -8
BITMAP
00
00
00
00
00
00
00
00
00
00
00
00
00
00
00
00
00
00
00
00
00
00
00
00
00
00
00
00
00
00
00
00
00
00
00
00
00
00
00
00
00
00
00
ENDCHAR
STARTCHAR C002C
ENCODING -1 44
SWIDTH 326 0
DWIDTH 14 0
BBX 31 43 0 -8
BITMAP
00000000
00000000
00000000
00000000
00000000
00000000
00000000
00000000
00000000
00000000
00000000
00000000
00000000
00000000
00000000
00000000
00000000
00000000
00000000
00000000
00000000
00000000
00000000
00000000
00000000
00000000
00000000
00000000
00000000
40400000
31800000
3F800000
3F800000
3F800000
33800000
41C00000
00C00000
01800000
0E000000
00000000
00000000
00000000
00000000
ENDCHAR
STARTCHAR C002D
ENCODING -1 45
SWIDTH 442 0
DWIDTH 19 0
BBX 31 43 0 -8
BITMAP
00000000
00000000
00000000
00000000
00000000
00000000
00000000
00000000
00000000
00000000
00000000
00000000
00000000
00000000
00000000
00000000
00000000
00000000
00000000
00000000
00000000
08080000
1FFC0000
7FFF0000
1FFC0000
08080000
00000000
00000000
00000000
00000000
00000000
00000000
00000000
00000000
00000000
00000000
00000000
00000000
00000000
00000000
00000000
00000000
00000000
ENDCHAR
STARTCHAR C002E
ENCODING -1 46
SWIDTH 326 0
DWIDTH 14 0
BBX 31 43 0 -8
BITMAP
00000000
00000000
00000000
00000000
00000000
00000000
00000000
00000000
00000000
00000000
00000000
00000000
00000000
00000000
00000000
00000000
00000000
00000000
00000000
00000000
00000000
00000000
00000000
00000000
00000000
00000000
00000000
00000000
00000000
40400000
31800000
3F800000
3F800000
3F800000
31800000
40400000
00000000
00000000
00000000
00000000
00000000
00000000
00000000
ENDCHAR
STARTCHAR C002F
ENCODING -1 47
SWIDTH 0 0
DWIDTH 0 0
BBX 0 43 0 -8
BITMAP
00
00
00
00
00
00
00
00
00
00
00
00
00
00
00
00
00
00
00
00
00
00
00
00
00
00
00
00
00
00
00
00
00
00
00
00
00
00
00
00
00
00
00
ENDCHAR
STARTCHAR C0030
ENCODING -1 48
SWIDTH 674 0
DWIDTH 29 0
BBX 31 43 0 -8
BITMAP
00000000
00000000
00000000
00000000
00000000
00020000
000F8000
0070E000
1FF07800
3FE03F80
1FE03FE0
1FC03FC0
1FC03FC0
1FC03FC0
1FC03FC0
1FC03FC0
1FC03FC0
1FC03FC0
1FC03FC0
1FC03FC0
1FC03F80
1FC03F80
1FC03F80
1FC03F80
1FC03F80
3FC03F80
3FC03F80
3FC03F80
7FC07F80
07E07FC0
00E0FF00
0031C000
001E0000
00040000
00000000
00000000
00000000
00000000
00000000
00000000
00000000
00000000
00000000
ENDCHAR
STARTCHAR C0031
ENCODING -1 49
SWIDTH 488 0
DWIDTH 21 0
BBX 31 43 0 -8
BITMAP
00000000
00000000
00000000
00000000
78380000
783C0000
78FE0000
7FFFE000
07FFE000
00FF8000
00FF0000
00FF0000
00FF0000
00FF0000
00FF0000
00FF0000
00FF0000
00FF0000
00FF0000
00FF0000
00FF0000
00FF0000
00FF0000
00FF0000
00FF0000
00FF0000
00FF0000
00FF0000
01FF0000
07FF8000
0FFFE000
01FF0000
007C0000
00380000
00000000
00000000
00000000
00000000
00000000
00000000
00000000
00000000
00000000
ENDCHAR
STARTCHAR C0032
ENCODING -1 50
SWIDTH 605 0
DWIDTH 26 0
BBX 31 43 0 -8
BITMAP
00000000
00000000
00000000
00000000
00180000
007C0000
00E78000
0FC3F800
3F81FF00
3F01FE00
3F01FE00
3F01FE00
3F01FE00
3F01FE00
3C01FE00
0003FE00
0003FE00
0007FE00
000FFF00
003F8000
00780000
00E00000
01800000
03000000
06003000
0C01F000
183FF800
11FFFC00
37FFFF00
3FFFFF00
7FFFFE00
7FFFF800
7C00F000
40001000
00000000
00000000
00000000
00000000
00000000
00000000
00000000
00000000
00000000
ENDCHAR
STARTCHAR C0033
ENCODING -1 51
SWIDTH 651 0
DWIDTH 28 0
BBX 31 43 0 -8
BITMAP
00000000
00000000
00000000
00000000
000E0000
003F8000
00E1F000
0FC0FFC0
7F80FF80
3F80FF80
3F007F80
3F007F80
3F007F80
3F807F80
38007F80
0000FFC0
0000FC00
0001C000
003F0000
007F0000
0001E000
0000FFC0
00007F80
00007F80
20007F80
3F007F80
3F007F80
3F007F80
3F007FC0
3F807FC0
3F80FE00
00C1C000
003F0000
001E0000
00000000
00000000
00000000
00000000
00000000
00000000
00000000
00000000
00000000
ENDCHAR
STARTCHAR C0034
ENCODING -1 52
SWIDTH 628 0
DWIDTH 27 0
BBX 31 43 0 -8
BITMAP
00000000
00000000
00000000
00000000
00000000
00000000
00000000
0007FC00
000FF800
000FF000
001FE000
001FC000
003F8000
003F0000
007E0000
007C0000
00F80000
01F0E000
01E1F800
038FFE00
0707FC00
0707FC00
0E03F800
1C03F800
3803FC00
7003FC00
7FFFFF80
0003FC00
0003FC00
0007FC00
001FFF00
001FF800
0001F000
0000E000
00000000
00000000
00000000
00000000
00000000
00000000
00000000
00000000
00000000
ENDCHAR
STARTCHAR C0035
ENCODING -1 53
SWIDTH 628 0
DWIDTH 27 0
BBX 31 43 0 -8
BITMAP
00000000
00000000
00000000
00000000
0FFFF800
3FFFF000
3FFFC000
3FFF8000
3FFF8000
3FFF8000
3FFF0000
38000000
30000000
20000000
20000000
20FC0000
23FF8000
2603F000
3801FF00
3000FF00
3000FF00
2000FF00
00007F00
00007F00
6C007F00
7C007F00
7C007F00
7E00FF00
7E00FF80
7F00FE00
0701E000
01C18000
00620000
003C0000
00000000
00000000
00000000
00000000
00000000
00000000
00000000
00000000
00000000
ENDCHAR
STARTCHAR C0036
ENCODING -1 54
SWIDTH 674 0
DWIDTH 29 0
BBX 31 43 0 -8
BITMAP
00000000
00000000
00000000
00000000
00000000
00060000
001F0000
0070C000
01F0FF00
1FC07F80
7FC03F00
3FC03F00
3FC03F00
3FC01F00
3FC00000
3FC00000
3FC3C000
3FCCF800
3FF07E00
3FE03FE0
3FE03FC0
3FC03FC0
3FC03FC0
3FC03FC0
3FC03FC0
3FC03FC0
3FC03FC0
3FC03FC0
7FC03FE0
0FC03E00
00E07800
0030E000
000F8000
00060000
00000000
00000000
00000000
00000000
00000000
00000000
00000000
00000000
00000000
ENDCHAR
STARTCHAR C0037
ENCODING -1 55
SWIDTH 605 0
DWIDTH 26 0
BBX 31 43 0 -8
BITMAP
00000000
00000000
00000000
00000000
00000000
08000100
0FFFFF00
1FFFFF00
1FFFFE00
7FFFFE00
7FFFFC00
3FFFC400
3F000800
1E000800
1C001000
08003000
08002000
00006000
0000C000
0000C000
0001C000
00038000
00078000
000F8000
001F8000
003F8000
007F8000
00FF8000
03FF8000
0FFF8000
07FF8000
03FC0000
00F00000
00600000
00000000
00000000
00000000
00000000
00000000
00000000
00000000
00000000
00000000
ENDCHAR
STARTCHAR C0038
ENCODING -1 56
SWIDTH 674 0
DWIDTH 29 0
BBX 31 43 0 -8
BITMAP
00000000
00000000
00000000
00000000
00000000
000C0000
003F8000
00F0F800
1FC03F80
7FC01F80
3FC01F80
1FC00F80
1FE00F80
1FF81F80
1FFE1F80
3FFF3000
3FFFE000
07FFE000
01FFF800
007FFF00
00FFFF80
0387FFE0
7F03FFE0
3E00FFC0
3E007FC0
3E003FC0
3E001FE0
3E001FE0
3F001FE0
7F801F80
0FC03800
00706000
000F0000
00060000
00000000
00000000
00000000
00000000
00000000
00000000
00000000
00000000
00000000
ENDCHAR
STARTCHAR C0039
ENCODING -1 57
SWIDTH 674 0
DWIDTH 29 0
BBX 31 43 0 -8
BITMAP
00000000
00000000
00000000
00000000
00000000
00000000
000F0000
003FC000
00F0F000
7FE07FE0
3FC07FC0
3FC03FC0
3FC03FC0
3FC03FC0
3FC03FC0
3FC03FC0
3FC03FC0
3FC03FC0
3FC03FC0
7FC07FC0
7FC0FFC0
07E1FFC0
00FE3FC0
00003FC0
00003FC0
1F803FC0
1F803FC0
1F803FC0
1F803FC0
1F803FE0
1FC07FE0
00C0F000
00600000
00180000
00000000
00000000
00000000
00000000
00000000
00000000
00000000
00000000
00000000
ENDCHAR
STARTCHAR C003A
ENCODING -1 58
SWIDTH 0 0
DWIDTH 0 0
BBX 0 43 0 -8
BITMAP
00
00
00
00
00
00
00
00
00
00
00
00
00
00
00
00
00
00
00
00
00
00
00
00
00
00
00
00
00
00
00
00
00
00
00
00
00
00
00
00
00
00
00
ENDCHAR
STARTCHAR C003B
ENCODING -1 59
SWIDTH 0 0
DWIDTH 0 0
BBX 0 43 0 -8
BITMAP
00
00
00
00
00
00
00
00
00
00
00
00
00
00
00
00
00
00
00
00
00
00
00
00
00
00
00
00
00
00
00
00
00
00
00
00
00
00
00
00
00
00
00
ENDCHAR
STARTCHAR C003C
ENCODING -1 60
SWIDTH 0 0
DWIDTH 0 0
BBX 0 43 0 -8
BITMAP
00
00
00
00
00
00
00
00
00
00
00
00
00
00
00
00
00
00
00
00
00
00
00
00
00
00
00
00
00
00
00
00
00
00
00
00
00
00
00
00
00
00
00
ENDCHAR
STARTCHAR C003D
ENCODING -1 61
SWIDTH 0 0
DWIDTH 0 0
BBX 0 43 0 -8
BITMAP
00
00
00
00
00
00
00
00
00
00
00
00
00
00
00
00
00
00
00
00
00
00
00
00
00
00
00
00
00
00
00
00
00
00
00
00
00
00
00
00
00
00
00
ENDCHAR
STARTCHAR C003E
ENCODING -1 62
SWIDTH 0 0
DWIDTH 0 0
BBX 0 43 0 -8
BITMAP
00
00
00
00
00
00
00
00
00
00
00
00
00
00
00
00
00
00
00
00
00
00
00
00
00
00
00
00
00
00
00
00
00
00
00
00
00
00
00
00
00
00
00
ENDCHAR
STARTCHAR C003F
ENCODING -1 63
SWIDTH 698 0
DWIDTH 30 0
BBX 31 43 0 -8
BITMAP
00000000
00000000
00000000
001F0000
01FFF000
0FC07E00
7F803FC0
3F001F80
1F001F00
1E000F00
0E000F00
0F000F00
1F800F00
3FC00F00
3FC01F00
3FC01F80
1F803FC0
00007E00
0007F000
003F8000
001F0000
001F0000
003F8000
00FFE000
00FFE000
007FC000
003F8000
001F0000
000E0000
00444000
00318000
003F8000
003F8000
003F8000
00318000
00404000
00000000
00000000
00000000
00000000
00000000
00000000
00000000
ENDCHAR
STARTCHAR C0040
ENCODING -1 64
SWIDTH 0 0
DWIDTH 0 0
BBX 0 43 0 -8
BITMAP
00
00
00
00
00
00
00
00
00
00
00
00
00
00
00
00
00
00
00
00
00
00
00
00
00
00
00
00
00
00
00
00
00
00
00
00
00
00
00
00
00
00
00
ENDCHAR
STARTCHAR C0041
ENCODING -1 65
SWIDTH 1023 0
DWIDTH 44 0
BBX 62 43 0 -8
BITMAP
0000000000000000
00FE000000000000
01FFC00C00000000
07FFF03800000000
07FFFC7000000000
0FFFFEE000000000
1E07FFE000000000
1C03FFE000000000
1801FFE000000000
3800FFE000000000
3800FFE000000000
39F1FFF000000000
39F1BFF000000000
39F19FF000000000
39F31FF800000000
19F30FF800000000
18F30FF800000000
0E760FFC00000000
07C607FC00000000
010607FC00000000
000E07FE00000000
000FFFFE00000000
001FFFFE00000000
001FFFFE80000000
003830FE80000000
003830FEC0000000
007830FEC0000000
0078307EE0000000
01F830FEF0000000
03FC30FEFC000000
1FFC21FEFF000000
7FFF23FEFF800000
7FFFA00EF0000000
0FFC2006C0000000
03F0200280000000
01C0200200000000
0080300000000000
0000340000000000
0000370000000000
0000378000000000
00001F8000000000
00001F0000000000
0000000000000000
ENDCHAR
STARTCHAR C0042
ENCODING -1 66
SWIDTH 1000 0
DWIDTH 43 0
BBX 62 43 0 -8
BITMAP
0000000000000000
0000000000000000
3F00000000000000
7F001FF800000000
7E00FFFE80000000
7E07F30EE0000000
7FFFE306F8000000
3FFFE302FE000000
007FE302FE000000
007FE302FF000000
007FE302FF000000
007FE302FF000000
007FE302FF000000
07FFE306FF000000
07FFE306FE000000
07FFE30EF8000000
07FFE37EE0000000
0FFFE3FE00000000
0FFFC3FE80000000
0FFFC20EE0000000
007FC60EF8000000
007FC606FC000000
007FC606FC000000
007FC606FE000000
007FC606FE000000
007FC606FE000000
007FE606FE000000
00FFFE06FE000000
01FFFF06FE000000
03FFFF86FE000000
0FFFFFE6FE000000
1FFFFFEEFE000000
3FFFFFFEFF000000
7800FFE001000000
60003F0000000000
40001E0000000000
00000C0000000000
0000040000000000
0000040000000000
000005E000000000
000007E000000000
000007E000000000
000003C000000000
ENDCHAR
STARTCHAR C0043
ENCODING -1 67
SWIDTH 930 0
DWIDTH 40 0
BBX 62 43 0 -8
BITMAP
000000FE00000000
000181FE00000000
000F831EF8000000
003F0F0EF0000000
007E3E0EC0000000
01FC7E0E00000000
01F9FE0E00000000
07FFFE0E00000000
07F8FE0E00000000
0FF0FE0C00000000
1FF0FE0C00000000
1FE0FE0C00000000
3FE0FE0C00000000
3FE0FE0C00000000
3FE0FE0C00000000
7FE0FE0C00000000
7FE0FE0C00000000
7FE0FE1800000000
7FE0FE1800000000
7FE0FE1800000000
7FE0FE1800000000
7FE0FE1800000000
7FE0FE1818000000
7FE0FE1838000000
7FF0FE1830000000
3FF0FF1860000000
1FF0FC1860000000
1FF0F018C0000000
0FF9C01880000000
07FF001A00000000
03FE001E00000000
01FE001C00000000
00FF807800000000
003FFFF800000000
0007FF1800000000
0000001800000000
00000018C0000000
00000018E0000000
00000008E0000000
0000000EC0000000
0000000E80000000
0000000000000000
0000000000000000
ENDCHAR
STARTCHAR C0044
ENCODING -1 68
SWIDTH 1023 0
DWIDTH 44 0
BBX 62 43 0 -8
BITMAP
0000000000000000
0000000000000000
0000000000000000
1E00007E00000000
7E000FFEE0000000
7E007F0EF0000000
7E07F902FE000000
7FFFF102FE000000
07FFF102FE000000
007FF102FF000000
003FF102FF000000
003FF102FF000000
003FF102FF000000
023FF102FF000000
03FFF102FF000000
07FFF102FF000000
07FFF182FF000000
07FFF1FEFF000000
07FFF18EFF000000
0FFFE102FF000000
0C7FE102FF000000
187FE302FF000000
007FE302FF000000
007FE302FF000000
007FE302FF000000
007FE302FF000000
007FE302FF000000
007FF302FF000000
007FFF82FF000000
007FFFC2FF000000
00FFFFF2FF000000
01FFFFFEFF000000
07FFFFFEFF800000
0FFFFFFC00000000
1E007FE000000000
38001F8000000000
2000070000000000
0000060000000000
0000026000000000
000002F000000000
000003F000000000
000003F000000000
000000E000000000
ENDCHAR
STARTCHAR C0045
ENCODING -1 69
SWIDTH 1023 0
DWIDTH 44 0
BBX 62 43 0 -8
BITMAP
0000000000000000
0000000000000000
0000000000000000
3E003FFE80000000
7E03FE1EF0000000
7C1FC606F8000000
3FFFC602FF800000
0FFFC600FE000000
01FFC600FC000000
00FFC640F0000000
00FFC660E0000000
00FF8660C0000000
00FF86E000000000
08FF86E000000000
0FFF87F000000000
0FFFC7F000000000
0FFFFFF800000000
0FFFFFFC00000000
1FFFFFFE00000000
1FFFCFF000000000
18FF87E000000000
00FF85C000000000
00FF84C060000000
00FF848060000000
00FF848060000000
00FF8C0060000000
01FF8C00F0000000
01FF8C00F0000000
03FF8C02F8000000
0FFFCC06F8000000
1FFFFFFEFE000000
01FFFFFEFF800000
007E0C0EF8000000
003C0C00E0000000
00380C0040000000
00000C0000000000
00000C0000000000
00000FC000000000
000007E000000000
000007E000000000
000007C000000000
0000000000000000
0000000000000000
ENDCHAR
STARTCHAR C0046
ENCODING -1 70
SWIDTH 1023 0
DWIDTH 44 0
BBX 62 43 0 -8
BITMAP
0000000000000000
0000000000000000
0000000000000000
00001FFE00000000
3E00FFFEE0000000
7E07E60EF9800000
7E3FC606FF000000
7FFFC602FE000000
3FFF8600F8000000
00FF8600F0000000
00FF8600E0000000
00FF8640C0000000
00FF866080000000
00FF87E000000000
05FF87F000000000
0FFFFFF000000000
0FFFFFFC00000000
0FFFFFFE00000000
0FFFFFFE00000000
0FFFFFF800000000
0FFF87F000000000
18FF87E000000000
10FF86C000000000
00FF86C000000000
00FF864000000000
00FF860000000000
00FF860000000000
01FF860000000000
01FFC60000000000
03FFE60000000000
0FFFFE0000000000
1FFFFE0000000000
07FF060000000000
007C060000000000
0038060000000000
0010060000000000
0000060000000000
000007C000000000
000007E000000000
000007E000000000
000007E000000000
000007E000000000
0000038000000000
ENDCHAR
STARTCHAR C0047
ENCODING -1 71
SWIDTH 1023 0
DWIDTH 44 0
BBX 62 43 0 -8
BITMAP
0000000000000000
0000000000000000
000003FE00000000
00038FFEE0000000
000F1C3EE0000000
003E3C3E80000000
00FCFC3E00000000
01FDFC3C00000000
03FFFC3800000000
07FDFC3000000000
0FF1FC3000000000
0FF1FC3030000000
1FE1FC3078000000
1FE1FC30FC000000
3FE1FC3EFC000000
3FE1FFFEFE000000
3FE1FC7EFE000000
7FE1FC3EFF000000
7FE1FC32FF000000
7FE1FC32FF800000
7FE1FC30FF800000
7FE1FC30FF800000
7FE1FC30FF000000
7FE1FC30FF000000
7FE1FC30FF000000
3FE1FE30FE000000
3FE1F830FE000000
1FE3C030FC000000
1FF38030F8000000
07FE0030F0000000
07FC0032E0000000
01FC003E80000000
007F007E00000000
001FFFF000000000
0000FE7000000000
0000003600000000
0000003680000000
0000003680000000
0000003E80000000
0000001E00000000
0000000000000000
0000000000000000
0000000000000000
ENDCHAR
STARTCHAR C0048
ENCODING -1 72
SWIDTH 1116 0
DWIDTH 48 0
BBX 62 43 0 -8
BITMAP
0000000000000000
0000000000000000
0000000018000000
3C0E02003C000000
7C1F02007E000000
787F8602FF800000
7FFFFE1EFFF80000
3FFFFE06FFE00000
00FFF202FF800000
00FFE200FF800000
00FFE200FF800000
00FFE200FF800000
00FFE200FF800000
04FFE300FF800000
07FFE300FF800000
07FFE77EFF800000
0FFFFFFEFF800000
0FFFFFFEFF800000
0FFFFFFEFF800000
0FFFFFFEFF800000
18FFE200FF800000
007FE200FF800000
007FC200FF800000
007FC200FF800000
007FC200FF800000
007FC200FF800000
00FFE200FF800000
00FFE600FF800000
01FFFE02FFF00000
03FFFE06FFF80000
07FFFE1EFFC00000
07FFE200FF000000
0FFFC2007E000000
1E07820018000000
3801860000000000
200006C000000000
000007E000000000
000007E000000000
000007E000000000
000003E000000000
000001E000000000
0000000000000000
0000000000000000
ENDCHAR
STARTCHAR C0049
ENCODING -1 73
SWIDTH 558 0
DWIDTH 24 0
BBX 31 43 0 -8
BITMAP
00000000
00000000
00000000
3E000000
7E1F8000
7C3FF800
7FFFF800
3FFFF000
07FFE000
007FE000
007FE000
007FE000
007FE000
067FE000
07FFE000
07FFE000
07FFE000
07FFE000
07FFE000
0FFFE000
087FE000
007FE000
007FE000
007FE000
007FE000
007FE000
007FE000
00FFE000
00FFE000
07FFFC00
0FFFF000
007F8000
001F0000
000E0000
00000000
00000000
00000000
00000000
00000000
00000000
00000000
00000000
00000000
ENDCHAR
STARTCHAR C004A
ENCODING -1 74
SWIDTH 698 0
DWIDTH 30 0
BBX 31 43 0 -8
BITMAP
00000000
00000000
03F03800
03F07E00
03E1FFE0
03FFFFC0
01FFFF80
0003FF00
0001FF00
0001FF00
0001FF00
0001FF00
0003FF00
001FFF00
001FFF00
003FFF00
003FFF00
003FFF00
003FFF00
0061FF00
0041FF00
0001FF00
0C01FF00
3F01FF00
7F01FF00
7F81FF80
7F81FF80
7F01FFC0
7F03FFF0
7E03FE00
7007F800
380FE000
1C1F8000
0FFE0000
00000000
00000000
00000000
00000000
00000000
00000000
00000000
00000000
00000000
ENDCHAR
STARTCHAR C004B
ENCODING -1 75
SWIDTH 1070 0
DWIDTH 46 0
BBX 62 43 0 -8
BITMAP
0000000000000000
0000000000000000
0000020030000000
381C020078000000
783F0200FF800000
78FFC60EFF000000
7FFFFE06FE000000
01FFE602FC000000
007FE602F8000000
007FC602F0000000
007FC602E0000000
007FC602C0000000
007FC60280000000
007FC60600000000
067FC60C00000000
07FFC63800000000
07FFE7E000000000
07FFFFC000000000
07FFFFF000000000
0FFFE63C00000000
0FFFE61E00000000
0C7FE60E80000000
187FE60EE0000000
007FE606F0000000
007FE606F8000000
007FE606FC000000
007FFE06FE000000
007FFE06FF000000
00FFFE06FF800000
03FFF606FFE00000
03FFE202FF000000
07FFE200FC000000
0F03C20038000000
1C00C20000000000
1800020000000000
0000020000000000
000003F000000000
0000037000000000
000003F000000000
000003E000000000
0000000000000000
0000000000000000
0000000000000000
ENDCHAR
STARTCHAR C004C
ENCODING -1 76
SWIDTH 860 0
DWIDTH 37 0
BBX 62 43 0 -8
BITMAP
0000000000000000
0000000000000000
0000000000000000
00007FC000000000
3C03F33800000000
7C1FE31C00000000
7FFFE31E00000000
3FFFE31E80000000
007FE31EC0000000
007FE33E80000000
007FE33E00000000
007FE30E00000000
007FE30000000000
007FE30000000000
03FFE30000000000
07FFE30000000000
07FFE30000000000
07FFE30000000000
07FFE30000000000
0FFFE30000000000
0C7FE30000000000
187FE30000000000
187FE30000000000
007FE30000000000
007FE70000000000
007FFFC000000000
007FFFFEC0000000
007FFFFE00000000
00FFFFFE00000000
01FFFFFC00000000
07FFFFF800000000
078007F000000000
1E0003E000000000
1800030000000000
1000030000000000
0000030000000000
0000030000000000
000003F000000000
0000037000000000
000001F000000000
000001F000000000
0000000000000000
0000000000000000
ENDCHAR
STARTCHAR C004D
ENCODING -1 77
SWIDTH 1279 0
DWIDTH 55 0
BBX 62 43 0 -8
BITMAP
0000000000000000
0000000000000000
0000000000000000
0000001000600000
3E03803000F00000
7E03C03001F80000
7E0FF8300FFE0000
3FFFFFF07FFF8000
03FFFF901FFFE000
001FFF100FFF8000
001FFF100FFF0000
000FFF101FFF0000
000FFF901FFF0000
000DFFB01FFF0000
000DFFB037FF0000
00FCFFF027FF0000
00FCFFF067FF0000
00FC7FF067FF0000
00FC7FF0C7FF0000
00FC3FF0C7FF0000
01FC3FF087FF0000
018C3FF087FF0000
010C1FFA07FF0000
000C1FFA07FF0000
000C0FFE07FF0000
001C0FFE07FF0000
001C07FE07FF0000
001C07FE07FF0000
003C07FE07FF0000
007F07FE0FFF0000
03FF87FE1FFFE000
07FF87FE0FFF0000
007E01FC00FC0000
0018007000700000
0018007000000000
0000003000000000
0000003000000000
0000003600000000
0000003E00000000
0000003E00000000
0000001E00000000
0000000000000000
0000000000000000
ENDCHAR
STARTCHAR C004E
ENCODING -1 78
SWIDTH 1070 0
DWIDTH 46 0
BBX 62 43 0 -8
BITMAP
0000000000000000
0000000000000000
000000800C000000
3C0300801E000000
7C0F80807FE00000
7C1FF080FFC00000
7FFFFE807F000000
01FFFEC03E000000
007FFFC01E000000
003FFFC00C000000
001FFFC00C000000
001FFFC00C000000
001FFFE00C000000
01FBFFF00C000000
01F9FFF80C000000
01F0FFFC0C000000
01F07FFE0C000000
03F03FFE0C000000
03B81FFE8C000000
02181FFECC000000
001807FEEC000000
001807FEEC000000
001801FEFC000000
001801FEFC000000
001801FEFE000000
001801FEFF800000
003801FEFF000000
003C01CEFC000000
007E00CEF8000000
03FFE0C2F8000000
0FFF00C2F0000000
03FC00C0F0000000
003800C0E0000000
001000C060000000
000000C020000000
000000F000000000
000000F800000000
000000F800000000
0000007800000000
0000007000000000
0000000000000000
0000000000000000
0000000000000000
ENDCHAR
STARTCHAR C004F
ENCODING -1 79
SWIDTH 1000 0
DWIDTH 43 0
BBX 62 43 0 -8
BITMAP
0000000000000000
0000000000000000
0000000000000000
0000C1FC00000000
0007CEFE00000000
001F1E7EC0000000
007E3C6EF0000000
01FEFC6EF0000000
03FFFC66F8000000
07FFFC62FC000000
0FF9FC62FE000000
1FF1FC62FE000000
1FF1FC62FF000000
3FF1FC62FF000000
3FE1FC60FF000000
7FE1FC60FF000000
7FE1FC40FF000000
7FE1FC40FF000000
7FE1FC40FF000000
7FE1FC40FF000000
7FE1FC40FF000000
7FE1FC40FF000000
7FE1FC42FF000000
7FE1FC42FE000000
7FE1FC42FC000000
3FE1FC42FC000000
3FE1FC42F8000000
1FF1E046F0000000
0FF30046E0000000
07F8004EC0000000
03FC00FE80000000
00FE00FE00000000
003F83F800000000
0007FFC000000000
000001C000000000
000000C000000000
000000DC00000000
000000FC00000000
0000007C00000000
0000003800000000
0000000000000000
0000000000000000
0000000000000000
ENDCHAR
STARTCHAR C0050
ENCODING -1 80
SWIDTH 977 0
DWIDTH 42 0
BBX 62 43 0 -8
BITMAP
0000000000000000
0000000000000000
0000000000000000
3E007F1E00000000
7C03F20EE0000000
7C1FE202F0000000
7FFFE202F8000000
7FFFE200FC000000
007FE200FE000000
007FE200FE000000
007FE200FE000000
007FE3C0FE000000
047FE3C0FE000000
07FFE3C2FE000000
0FFFE386FE000000
0FFFE30EFC000000
0FFFE3FEF8000000
0FFFE23EE0000000
1FFFE20000000000
187FE20000000000
107FE20000000000
007FE20000000000
007FE20000000000
007FE20000000000
007FE20000000000
007FE20000000000
00FFE20000000000
00FFE60000000000
03FFFE0000000000
0FFFFE0000000000
03FF060000000000
007E060000000000
001C060000000000
000C020000000000
0000020000000000
000002C000000000
000003E000000000
000003E000000000
000003E000000000
000001C000000000
0000000000000000
0000000000000000
0000000000000000
ENDCHAR
STARTCHAR C0051
ENCODING -1 81
SWIDTH 1000 0
DWIDTH 43 0
BBX 62 43 0 -8
BITMAP
0000000000000000
0000000000000000
0000000000000000
0000000000000000
000387FE00000000
000F1EFE80000000
003E3CFEC0000000
00FC7CCEE0000000
03F9FCC6F0000000
03F9FCC6F8000000
07F1FCC2FC000000
1FF1FCC2FE000000
1FE1FCC2FE000000
3FE1FCC0FF000000
3FE1FCC0FF000000
7FE1FCC0FF000000
7FE1FCC0FF000000
7FE1FCC0FF000000
7FE1FCC0FF000000
7FE1FCC0FF000000
7FE1FCC0FF000000
7FE1FCC0FF000000
7FE1FCC0FF000000
7FE1FCC0FE000000
7FE1FCC2FE000000
7FE1FCC2FC000000
3FE1F0C6F8000000
3FE1C0C6F8000000
1FF180CEF0000000
0FF000CEC0000000
07F800DE80000000
01FC00FE00000000
007E00FC00000000
001FFFFE00000000
00007FFEF0000000
0000FFFEC0000000
0003FFFE80000000
000F01FE00000000
0038003E00000000
0020000C00000000
0000000000000000
0000000000000000
0000000000000000
ENDCHAR
STARTCHAR C0052
ENCODING -1 82
SWIDTH 1023 0
DWIDTH 44 0
BBX 62 43 0 -8
BITMAP
0000000000000000
0000000000000000
0000000000000000
3E00000000000000
7E000FFE00000000
7E00FFFEC0000000
7E0FF30EF0000000
3FFFE306FC000000
0FFFE306FC000000
007FE202FE000000
007FE202FE000000
007FE202FE000000
007FE206FE000000
037FE206FC000000
07FFE20EF8000000
07FFE20EF0000000
07FFE23EC0000000
07FFFFFC00000000
07FFFFFC00000000
0FFFE61E00000000
0C7FE61E80000000
007FE60EC0000000
007FE606E0000000
007FE606F0000000
007FE606F0000000
007FE606F8000000
007FE606FC000000
00FFE606FE000000
01FFFE06FE000000
0FFFFE06FF000000
0FFFFE0EFF800000
007F8602FE000000
003E060078000000
001C060030000000
0000060000000000
0000060000000000
000006C000000000
000007E000000000
000007E000000000
000007C000000000
000003C000000000
0000000000000000
0000000000000000
ENDCHAR
STARTCHAR C0053
ENCODING -1 83
SWIDTH 977 0
DWIDTH 42 0
BBX 62 43 0 -8
BITMAP
0000000000000000
0000000000000000
0000000000000000
000FFC0000000000
007FFF8000000000
00E0FFF008000000
01C01FFC7E000000
03C007FEFE000000
07C003FE1E000000
07E000FC1E000000
07F0007C18000000
07FE007000000000
07FFF07000000000
07FFFFE000000000
07FFFFF000000000
07FFFFFE00000000
03FFFFFEC0000000
01FFFFFEE0000000
00FFFFFEF8000000
003FFFFEF8000000
000FFFFEFC000000
0001FFFEFC000000
00003FFEFE000000
0000307EFE000000
0007F006FE000000
01FFF800FE000000
07FFFF00FC000000
1FFFFFC07C000000
1FFFFFE078000000
780FFFF878000000
60187FFC70000000
60381FFEC0000000
60600FF800000000
7FC00F0000000000
1F00000000000000
0000000000000000
0000000000000000
0000000000000000
0000000000000000
0000000000000000
0000000000000000
0000000000000000
0000000000000000
ENDCHAR
STARTCHAR C0054
ENCODING -1 84
SWIDTH 907 0
DWIDTH 39 0
BBX 62 43 0 -8
BITMAP
0000000000000000
0000000000000000
0000000000000000
0000000000000000
00FF03F800000000
7FF78F3EF0000000
7FE3FE3EF0000000
7FC3FE1EF0000000
7FC3FE1EF0000000
7F83FE1EF0000000
7F83FE1EF0000000
7F03FE1EF0000000
7F03FE1EF0000000
7E23FE1EF0000000
7C3FFE1EF0000000
7C3FFE18F0000000
787FFE18F0000000
707FFE1870000000
607FFE1830000000
00FFFE1800000000
00C7FE1000000000
0087FE1000000000
0007FE1000000000
0007FE1000000000
0007FE1000000000
0007FE1000000000
0007FE1000000000
0007FE1000000000
000FFF3000000000
003FFFF000000000
003FFFF000000000
0003FC3000000000
0000F03000000000
0000003000000000
0000003000000000
0000001000000000
0000001800000000
0000001A80000000
0000001A80000000
0000001E00000000
0000000E00000000
0000000000000000
0000000000000000
ENDCHAR
STARTCHAR C0055
ENCODING -1 85
SWIDTH 1047 0
DWIDTH 45 0
BBX 62 43 0 -8
BITMAP
0000000000000000
0000000000000000
000000C018000000
7C0F00C03C000000
7C1F80C07F000000
7FFFC0C6FFC00000
3FFFF8C6FFC00000
00FFF0C0FF000000
007FE0C0FE000000
007FE0C07C000000
007FE0C038000000
007FE0C038000000
007FE0C038000000
03FFE0C030000000
03FFE0C010000000
07FFE0C010000000
07FFE0CE30000000
07FFE0FEF0000000
0FFFE0FEF0000000
0C7FE0C010000000
087FE0C010000000
007FE0C010000000
007FE0C030000000
007FE0C030000000
007FE0C038000000
007FE0C038000000
007FE0C07C000000
01FFE1C07E000000
03FFE1C0F0000000
003FE1C0C0000000
0007F1C600000000
0000FFFC00000000
00003FF000000000
000001C000000000
000001C000000000
000001F800000000
000001F800000000
000000F800000000
000000F800000000
0000007000000000
0000000000000000
0000000000000000
0000000000000000
ENDCHAR
STARTCHAR C0056
ENCODING -1 86
SWIDTH 1070 0
DWIDTH 46 0
BBX 62 43 0 -8
BITMAP
0000000000000000
0000000000000000
0000000000000000
3C00006000000000
7E0000601C000000
7C1F00603E000000
783FC060FFE00000
7FFFF842FFE00000
3FFFF840FF000000
01FFF8607E000000
00FFF8603C000000
007FF84038000000
007FF84030000000
003FF84030000000
003FFC4020000000
007FFE4060000000
007FFE4040000000
007FFF40C0000000
007FFFC080000000
00FFFFC080000000
00FFFFC000000000
00C1FFE200000000
0080FFE200000000
0000FFE600000000
00007FF400000000
00007FFC00000000
00003FFC00000000
00003FFC00000000
00003FFE00000000
00003FFE00000000
0000FFFE80000000
00000FFC00000000
000003F000000000
000000E000000000
000000C000000000
000000C000000000
000000CE00000000
0000004E00000000
0000006600000000
0000007E00000000
0000003E00000000
0000000000000000
0000000000000000
ENDCHAR
STARTCHAR C0057
ENCODING -1 87
SWIDTH 1302 0
DWIDTH 56 0
BBX 62 43 0 -8
BITMAP
0000000000000000
0000000000000000
0000000000000000
0000000000000000
7800000600000000
703C001E80078000
70FF00FEF87FC000
7FFFE3FEF87FF000
7FFFE1FEF03FC000
00FFC0FEE01F8000
00FFC07EE00F0000
007FC07EE00E0000
007FC03EF00C0000
007FC03EF00C0000
017FE07EF0080000
01FFE07EF8180000
01FFE07EF8180000
01FFE0FEFC100000
03FFF0FEFC300000
03FFF1BEFC300000
021FF1B6FE200000
000FF936FE600000
000FFB32FE600000
000FFE32FFC00000
000FFE30FFC00000
0007FE30FFC00000
0007FE30FFC00000
0007FE20FFC00000
000FFF20FFF00000
001FFF22FFE00000
000FFC22FF000000
0001F0201F000000
0000E0600C000000
0000406000000000
0000006000000000
0000007C00000000
0000007E00000000
0000007E00000000
0000003E00000000
0000001E00000000
0000000000000000
0000000000000000
0000000000000000
ENDCHAR
STARTCHAR C0058
ENCODING -1 88
SWIDTH 953 0
DWIDTH 41 0
BBX 62 43 0 -8
BITMAP
0000000000000000
0000000000000000
0000000000000000
3C07000800000000
780FC00E30000000
783FF81EE0000000
7FFFFC3EE0000000
1FFFFC3EC0000000
001FFC7E80000000
001FFC7E00000000
000FFCC000000000
0007FF8000000000
0007FF0000000000
0003FF0000000000
000FFFF800000000
001FFFF800000000
001FFFF000000000
001FFFE000000000
0010FFC000000000
00007FE000000000
00007FE000000000
00007FF000000000
00019FF800000000
00019FF800000000
00030FFE00000000
003F07FE00000000
01FF07FE00000000
07FFC3FEF8000000
0FFFC3FEFC000000
1FFF80FEE0000000
3FFE003E80000000
783E001E00000000
600C000C00000000
4000000000000000
0000000000000000
0000000000000000
0000000000000000
0000000000000000
0000000000000000
0000000000000000
0000000000000000
0000000000000000
0000000000000000
ENDCHAR
STARTCHAR C0059
ENCODING -1 89
SWIDTH 1047 0
DWIDTH 45 0
BBX 62 43 0 -8
BITMAP
0000000000000000
0000000000000000
0000000000000000
1830000018000000
7C7C00003C000000
78FF0000FE000000
7FFFF046FFC00000
7FFFF840FFC00000
01FFF0407E000000
00FFF04078000000
007FF04070000000
003FF86060000000
001FFC60C0000000
000FFC60C0000000
000FFE6080000000
003FFF6200000000
003FFFE200000000
003FFFE600000000
003FFFEC00000000
003FFFFC00000000
00707FF800000000
00407FF800000000
00403FF800000000
00001FF800000000
00001FF800000000
00001FF800000000
00001FF800000000
00001FF800000000
00003FFC00000000
0000FFFE80000000
0000FFFE00000000
000007F000000000
000003E000000000
000001E000000000
000000E000000000
0000006000000000
0000006000000000
0000006C00000000
0000007C00000000
0000007C00000000
0000003C00000000
0000000000000000
0000000000000000
ENDCHAR
STARTCHAR C005A
ENCODING -1 90
SWIDTH 930 0
DWIDTH 40 0
BBX 62 43 0 -8
BITMAP
0000000000000000
0000000000000000
0000000000000000
0000000400000000
0180000C00000000
03E0007E00000000
07FE3FFE00000000
1FFFFFFE00000000
1FF831FEE0000000
0FC033FEE0000000
078037FE80000000
03803FFE80000000
03003FFE00000000
03003FFC00000000
01007FF800000000
0000FFF000000000
0001FFE000000000
0003FFC000000000
0007FF8000000000
001FFE0000000000
003FFC0000000000
00FFF80080000000
01FFF00080000000
01FFE00280000000
07FFE006C0000000
07FFE006C0000000
1FFFE00EE0000000
3FFE603EF8000000
7FFE7FFEF8000000
7FFFFFFEF0000000
0FFFFFFEE0000000
03F0600280000000
01C0600080000000
0180600000000000
0000600000000000
00007C0000000000
00007E0000000000
00007E0000000000
00003E0000000000
00001C0000000000
0000000000000000
0000000000000000
0000000000000000
ENDCHAR
STARTCHAR C005B
ENCODING -1 91
SWIDTH 0 0
DWIDTH 0 0
BBX 0 43 0 -8
BITMAP
00
00
00
00
00
00
00
00
00
00
00
00
00
00
00
00
00
00
00
00
00
00
00
00
00
00
00
00
00
00
00
00
00
00
00
00
00
00
00
00
00
00
00
ENDCHAR
STARTCHAR C005C
ENCODING -1 92
SWIDTH 0 0
DWIDTH 0 0
BBX 0 43 0 -8
BITMAP
00
00
00
00
00
00
00
00
00
00
00
00
00
00
00
00
00
00
00
00
00
00
00
00
00
00
00
00
00
00
00
00
00
00
00
00
00
00
00
00
00
00
00
ENDCHAR
STARTCHAR C005D
ENCODING -1 93
SWIDTH 0 0
DWIDTH 0 0
BBX 0 43 0 -8
BITMAP
00
00
00
00
00
00
00
00
00
00
00
00
00
00
00
00
00
00
00
00
00
00
00
00
00
00
00
00
00
00
00
00
00
00
00
00
00
00
00
00
00
00
00
ENDCHAR
STARTCHAR C005E
ENCODING -1 94
SWIDTH 0 0
DWIDTH 0 0
BBX 0 43 0 -8
BITMAP
00
00
00
00
00
00
00
00
00
00
00
00
00
00
00
00
00
00
00
00
00
00
00
00
00
00
00
00
00
00
00
00
00
00
00
00
00
00
00
00
00
00
00
ENDCHAR
STARTCHAR C005F
ENCODING -1 95
SWIDTH 0 0
DWIDTH 0 0
BBX 0 43 0 -8
BITMAP
00
00
00
00
00
00
00
00
00
00
00
00
00
00
00
00
00
00
00
00
00
00
00
00
00
00
00
00
00
00
00
00
00
00
00
00
00
00
00
00
00
00
00
ENDCHAR
STARTCHAR C0060
ENCODING -1 96
SWIDTH 0 0
DWIDTH 0 0
BBX 0 43 0 -8
BITMAP
00
00
00
00
00
00
00
00
00
00
00
00
00
00
00
00
00
00
00
00
00
00
00
00
00
00
00
00
00
00
00
00
00
00
00
00
00
00
00
00
00
00
00
ENDCHAR
STARTCHAR C0061
ENCODING -1 97
SWIDTH 628 0
DWIDTH 27 0
BBX 31 43 0 -8
BITMAP
00000000
00000000
00000000
00000000
00000000
00000000
00000000
00000000
00000000
00000000
00000000
00000000
00000000
00000000
00000000
00000000
00018000
1E07C000
3E1FFE00
3F7FFF80
3FFFFE00
1803FE00
0E01FE00
03C1FE00
00FFFE00
07FFFE00
3FC1FE00
3FC1FE00
3FC1FE00
3FC1FE00
3FFFFE00
3FFFFF80
7FC1FC00
0F007000
06000000
00000000
00000000
00000000
00000000
00000000
00000000
00000000
00000000
ENDCHAR
STARTCHAR C0062
ENCODING -1 98
SWIDTH 628 0
DWIDTH 27 0
BBX 31 43 0 -8
BITMAP
00000000
00000000
00000000
00000000
00000000
00000000
07C00000
1FF00000
7FF00000
3FE00000
0FE00000
0FE00000
0FE00000
0FE00000
0FE00000
0FE00000
0FE00000
0FE0F000
0FE1FC00
0FFFFF80
0FFFFF80
0FC0FF00
0FC07F00
0FC07F00
0FC07F00
0FC07F00
0FC07F00
0FC07F00
0FE07F00
0FF87F00
1FFE7F80
3FFFFC00
007FC000
000F0000
00000000
00000000
00000000
00000000
00000000
00000000
00000000
00000000
00000000
ENDCHAR
STARTCHAR C0063
ENCODING -1 99
SWIDTH 488 0
DWIDTH 21 0
BBX 31 43 0 -8
BITMAP
00000000
00000000
00000000
00000000
00000000
00000000
00000000
00000000
00000000
00000000
00000000
00000000
00000000
00000000
00000000
00000000
00030000
000F8000
00FFE000
7FC7E000
3F83C000
3F818000
3F818000
3F810000
3F800000
3F800000
3F800000
3F800000
3F800000
3FE00000
3FF80000
3FFF8000
01FC0000
00780000
00000000
00000000
00000000
00000000
00000000
00000000
00000000
00000000
00000000
ENDCHAR
STARTCHAR C0064
ENCODING -1 100
SWIDTH 605 0
DWIDTH 26 0
BBX 31 43 0 -8
BITMAP
00000000
00000000
00000000
00000000
00000000
003C0000
00FF0000
03FFC000
07FFFE00
001FFF00
000FFE00
0003FC00
0001FC00
0001FC00
0001FC00
0001FC00
00E1FC00
03E1FC00
1FFFFC00
3FF3FC00
3FC1FC00
3F81FC00
3F01FC00
3F01FC00
3F01FC00
3F01FC00
3F01FC00
3F81FC00
3FC1FC00
7FF1FC00
7FFFFE00
03FFC000
00FE0000
003C0000
00000000
00000000
00000000
00000000
00000000
00000000
00000000
00000000
00000000
ENDCHAR
STARTCHAR C0065
ENCODING -1 101
SWIDTH 581 0
DWIDTH 25 0
BBX 31 43 0 -8
BITMAP
00000000
00000000
00000000
00000000
00000000
00000000
00000000
00000000
00000000
00000000
00000000
00000000
00000000
00000000
00000000
00000000
000C0000
003E0000
01FF0000
7FFF8000
7FFFC000
3FDFE000
3F8FF800
3F87FE00
3F83FC00
3F8F0000
3FF00000
3FC00000
3FC00000
3FF00000
3FFC0000
7FFFFC00
03FFC000
007E0000
00380000
00000000
00000000
00000000
00000000
00000000
00000000
00000000
00000000
ENDCHAR
STARTCHAR C0066
ENCODING -1 102
SWIDTH 488 0
DWIDTH 21 0
BBX 31 43 0 -8
BITMAP
00000000
00000000
00000000
00000000
00000000
00070000
000F0000
003F8000
23FFE000
3FFFC000
0FE78000
0FE30000
0FE30000
0FE00000
0FE00000
0FE00000
0FE20000
7FFE0000
7FFC0000
7FFC0000
7FFC0000
0FE00000
0FE00000
0FE00000
0FE00000
0FE00000
0FE00000
0FE00000
0FE00000
0FE00000
1FF80000
3FFF8000
07FC0000
00F00000
00200000
00000000
00000000
00000000
00000000
00000000
00000000
00000000
00000000
ENDCHAR
STARTCHAR C0067
ENCODING -1 103
SWIDTH 605 0
DWIDTH 26 0
BBX 31 43 0 -8
BITMAP
00000000
00000000
00000000
00000000
00000000
00000000
00000000
00000000
00000000
00000000
00000000
00000000
00000000
00000000
00000000
00000000
00000000
000E0000
003F8000
03FFF000
3FFFFF00
1FCFFF00
1FC7FF00
1FC1FE00
1FC0FE00
1FC0FE00
1FC0FE00
1FC0FE00
1FC0FE00
1FC0FE00
1FE0FE00
3FF0FE00
7FFFFE00
07FFFF00
00F07F00
00407F00
00003F00
3F003F00
7C601F00
7C003E00
7E01FC00
3C000000
00000000
ENDCHAR
STARTCHAR C0068
ENCODING -1 104
SWIDTH 605 0
DWIDTH 26 0
BBX 31 43 0 -8
BITMAP
00000000
00000000
00000000
00000000
00000000
00000000
00000000
06000000
0F800000
3FE00000
7FC00000
3FC00000
1FC00000
1FC00000
1FC00000
1FC00000
1FC00000
1FC18000
1FC3C000
1FCFF800
1FFFFE00
1FCFFC00
1F83FC00
1F81FC00
1F81FC00
1F81FC00
1F81FC00
1F81FC00
1F81FC00
1F81FC00
1F81FE00
3FE1FF00
7FC0FE00
1F003800
04001000
00000000
00000000
00000000
00000000
00000000
00000000
00000000
00000000
ENDCHAR
STARTCHAR C0069
ENCODING -1 105
SWIDTH 279 0
DWIDTH 12 0
BBX 31 43 0 -8
BITMAP
00000000
00000000
00000000
00000000
00000000
00000000
00000000
06000000
0F800000
3FC00000
7FE00000
1F800000
1F000000
06000000
00000000
00000000
00000000
00000000
0F000000
1F800000
7FE00000
7FC00000
3F800000
3F800000
3F800000
3F800000
3F800000
3F800000
3F800000
3F800000
3F800000
3F800000
7FE00000
3FC00000
06000000
00000000
00000000
00000000
00000000
00000000
00000000
00000000
00000000
ENDCHAR
STARTCHAR C006A
ENCODING -1 106
SWIDTH 349 0
DWIDTH 15 0
BBX 31 43 0 -8
BITMAP
00000000
00000000
00000000
00000000
00000000
00000000
00000000
00E00000
01E00000
07F80000
0FFC0000
03F00000
01E00000
00000000
00000000
00000000
00000000
01C00000
03E00000
0FF80000
3FF00000
0FF00000
07F00000
07F00000
07F00000
07F00000
07F00000
07F00000
07F00000
07F00000
07F00000
07F00000
07F00000
07F00000
77F00000
77F00000
77F00000
77F00000
67800000
2E000000
00000000
00000000
00000000
ENDCHAR
STARTCHAR C006B
ENCODING -1 107
SWIDTH 651 0
DWIDTH 28 0
BBX 31 43 0 -8
BITMAP
00000000
00000000
00000000
00000000
00000000
00000000
03000000
0F800000
3FE00000
7FF80000
1FE00000
1FE00000
1FE00000
1FE00000
1FC00000
1FC00000
1FC00000
0FC00000
0FC03800
0FC0FC00
0FC0FF00
0FC0FC00
0FC07000
0FC0C000
0FC18000
1FFF0000
1FE1C000
1FC0F000
1FC0F800
1FC07C00
1FC07E00
1FC07F00
7FF07FC0
1F803C00
07000000
00000000
00000000
00000000
00000000
00000000
00000000
00000000
00000000
ENDCHAR
STARTCHAR C006C
ENCODING -1 108
SWIDTH 279 0
DWIDTH 12 0
BBX 31 43 0 -8
BITMAP
00000000
00000000
00000000
00000000
00000000
00000000
07000000
1FC00000
7FE00000
3FE00000
1FC00000
1FC00000
1FC00000
1FC00000
1FC00000
1FC00000
1FC00000
1FC00000
1FC00000
1FC00000
1FC00000
1FC00000
1FC00000
1FC00000
1FC00000
1FC00000
1FC00000
1FC00000
1FC00000
1FC00000
1FC00000
3FC00000
7FE00000
0F800000
03000000
00000000
00000000
00000000
00000000
00000000
00000000
00000000
00000000
ENDCHAR
STARTCHAR C006D
ENCODING -1 109
SWIDTH 953 0
DWIDTH 41 0
BBX 62 43 0 -8
BITMAP
0000000000000000
0000000000000000
0000000000000000
0000000000000000
0000000000000000
0000000000000000
0000000000000000
0000000000000000
0000000000000000
0000000000000000
0000000000000000
0000000000000000
0000000000000000
0000000000000000
0000000000000000
0000000000000000
0000000000000000
0200000000000000
07001C0040000000
3FC07C00E0000000
7FFFFFFEFC000000
1FE1FF86FC000000
1FC0FF06F8000000
1F807E02F8000000
1F807E02F0000000
1F807E02F0000000
1F807E02F0000000
1F807E02F0000000
1F80FE02F0000000
1F80FE02F0000000
3F80FE02F0000000
7FC0FE02F0000000
0FE1FF06FC000000
07003C00F8000000
0000000040000000
0000000000000000
0000000000000000
0000000000000000
0000000000000000
0000000000000000
0000000000000000
0000000000000000
0000000000000000
ENDCHAR
STARTCHAR C006E
ENCODING -1 110
SWIDTH 605 0
DWIDTH 26 0
BBX 31 43 0 -8
BITMAP
00000000
00000000
00000000
00000000
00000000
00000000
00000000
00000000
00000000
00000000
00000000
00000000
00000000
00000000
00000000
00000000
00000000
00000000
0F003000
3FC0F800
7FFFFE00
3FC3FF00
1F81FE00
1F81FC00
1F81FC00
1F81FC00
1F81FC00
1F81FC00
3F81FC00
3F81FC00
3F81FC00
7FC1FE00
1FC0FF00
0F007C00
00000000
00000000
00000000
00000000
00000000
00000000
00000000
00000000
00000000
ENDCHAR
STARTCHAR C006F
ENCODING -1 111
SWIDTH 535 0
DWIDTH 23 0
BBX 31 43 0 -8
BITMAP
00000000
00000000
00000000
00000000
00000000
00000000
00000000
00000000
00000000
00000000
00000000
00000000
00000000
00000000
00000000
00000000
00000000
00000000
007C0000
01FF0000
07FFF800
7F7FF800
7F3FF800
7F0FF800
7F03F800
7F03F800
7F03F800
3F03F800
7F03F800
7FC3F800
7FE3F800
7FF3F000
01FE0000
00F80000
00000000
00000000
00000000
00000000
00000000
00000000
00000000
00000000
00000000
ENDCHAR
STARTCHAR C0070
ENCODING -1 112
SWIDTH 628 0
DWIDTH 27 0
BBX 31 43 0 -8
BITMAP
00000000
00000000
00000000
00000000
00000000
00000000
00000000
00000000
00000000
00000000
00000000
00000000
00000000
00000000
00000000
00000000
00000000
00000000
00001800
07807E00
0FFFFF80
7FF0FF00
1FE07F00
0FC07F00
0FC07F00
0FC07F00
0FC07F00
0FC07F00
0FC07F00
0FC07F00
0FC1FF00
0FF3FF00
0FC03C00
0FC01000
0FC00000
0FC00000
0FC00000
1FE00000
1FC00000
03000000
00000000
00000000
00000000
ENDCHAR
STARTCHAR C0071
ENCODING -1 113
SWIDTH 558 0
DWIDTH 24 0
BBX 31 43 0 -8
BITMAP
00000000
00000000
00000000
00000000
00000000
00000000
00000000
00000000
00000000
00000000
00000000
00000000
00000000
00000000
00000000
00000000
00000000
00000000
00180000
007E0000
07FFE000
3FFFFC00
7F0FF800
7F07F800
3F01F800
3F01F800
3F01F800
3F01F000
3F01F000
3F01F000
7F81F000
7FC1F000
0FC1F000
0381F000
0001F000
0001F000
0001F800
0007FC00
0003F800
0000E000
00000000
00000000
00000000
ENDCHAR
STARTCHAR C0072
ENCODING -1 114
SWIDTH 512 0
DWIDTH 22 0
BBX 31 43 0 -8
BITMAP
00000000
00000000
00000000
00000000
00000000
00000000
00000000
00000000
00000000
00000000
00000000
00000000
00000000
00000000
00000000
00000000
00000000
00000000
00008000
0F03C000
7FFFF000
1FC3C000
0FC1C000
0FC08000
0FC00000
0FC00000
0FC00000
0FC00000
0FC00000
0FC00000
0FC00000
1FE00000
0FC00000
01800000
00000000
00000000
00000000
00000000
00000000
00000000
00000000
00000000
00000000
ENDCHAR
STARTCHAR C0073
ENCODING -1 115
SWIDTH 605 0
DWIDTH 26 0
BBX 31 43 0 -8
BITMAP
00000000
00000000
00000000
00000000
00000000
00000000
00000000
00000000
00000000
00000000
00000000
00000000
00000000
00000000
00000000
00000000
00000000
00000000
000E0300
007FDC00
7FFFFC00
3FBFF000
3F9FE000
3F80C000
3F808000
3F820000
7FFE0400
0071FC00
0001FC00
0381FC00
0FE1FC00
3FF1FC00
7FFFFC00
00FF0000
00700000
00000000
00000000
00000000
00000000
00000000
00000000
00000000
00000000
ENDCHAR
STARTCHAR C0074
ENCODING -1 116
SWIDTH 349 0
DWIDTH 15 0
BBX 31 43 0 -8
BITMAP
00000000
00000000
00000000
00000000
00000000
00000000
00000000
00000000
00000000
00000000
00400000
00C00000
03C00000
0FC00000
0FC00000
0FC00000
0FC00000
1FC00000
7FFC0000
7FFC0000
1FFC0000
0FC00000
0FC00000
0FC00000
0FC00000
0FC00000
0FC00000
0FC00000
0FC00000
1FC00000
1FC00000
1FF80000
07F80000
01C00000
00000000
00000000
00000000
00000000
00000000
00000000
00000000
00000000
00000000
ENDCHAR
STARTCHAR C0075
ENCODING -1 117
SWIDTH 605 0
DWIDTH 26 0
BBX 31 43 0 -8
BITMAP
00000000
00000000
00000000
00000000
00000000
00000000
00000000
00000000
00000000
00000000
00000000
00000000
00000000
00000000
00000000
00000000
00000000
00000000
0C001800
1F80FC00
7F81FF00
3F81FE00
3F80FE00
3F80FE00
3F80FE00
3F80FE00
3F80FE00
3F80FE00
3F80FC00
3F80FC00
3F80FE00
3F83FE00
7FFFFE00
0F003800
00000000
00000000
00000000
00000000
00000000
00000000
00000000
00000000
00000000
ENDCHAR
STARTCHAR C0076
ENCODING -1 118
SWIDTH 558 0
DWIDTH 24 0
BBX 31 43 0 -8
BITMAP
00000000
00000000
00000000
00000000
00000000
00000000
00000000
00000000
00000000
00000000
00000000
00000000
00000000
00000000
00000000
00000000
00000000
00000000
0E00E000
1E03F800
7F83FC00
3FC1E000
1F81C000
1F818000
0FC18000
0FC00000
07C00000
07E00000
03F00000
03FC0000
03FC0000
01FC0000
01F80000
00700000
00000000
00000000
00000000
00000000
00000000
00000000
00000000
00000000
00000000
ENDCHAR
STARTCHAR C0077
ENCODING -1 119
SWIDTH 884 0
DWIDTH 38 0
BBX 62 43 0 -8
BITMAP
0000000000000000
0000000000000000
0000000000000000
0000000000000000
0000000000000000
0000000000000000
0000000000000000
0000000000000000
0000000000000000
0000000000000000
0000000000000000
0000000000000000
0000000000000000
0000000000000000
0000000000000000
0000000000000000
0000000000000000
0000000000000000
0600300000000000
1F01F806C0000000
7FE3FE0EE0000000
7FE0FE0680000000
1FE0FE0600000000
1FE0FE0600000000
0FE0FE0400000000
07F0FE0000000000
03F03F0000000000
03F01F0000000000
03F81F8000000000
03FE1F8000000000
03FE1FF000000000
07FF1FF800000000
00FC07C000000000
0030018000000000
0000000000000000
0000000000000000
0000000000000000
0000000000000000
0000000000000000
0000000000000000
0000000000000000
0000000000000000
0000000000000000
ENDCHAR
STARTCHAR C0078
ENCODING -1 120
SWIDTH 628 0
DWIDTH 27 0
BBX 31 43 0 -8
BITMAP
00000000
00000000
00000000
00000000
00000000
00000000
00000000
00000000
00000000
00000000
00000000
00000000
00000000
00000000
00000000
00000000
00000000
03007000
07C0F800
3FF1FE00
3FF0F000
0FF0E000
07FC8000
01FF0000
00FF0000
007F0000
007F8000
007FE000
000FE000
0307F800
0F07FE00
7F87FF80
1F80FE00
0E001800
00000000
00000000
00000000
00000000
00000000
00000000
00000000
00000000
00000000
ENDCHAR
STARTCHAR C0079
ENCODING -1 121
SWIDTH 605 0
DWIDTH 26 0
BBX 31 43 0 -8
BITMAP
00000000
00000000
00000000
00000000
00000000
00000000
00000000
00000000
00000000
00000000
00000000
00000000
00000000
00000000
00000000
00000000
00000000
00000000
07003800
1F80FC00
7FE1FF00
7FE0FF00
1FC0FE00
1FC0FE00
1FC07E00
1FC07E00
1FC07E00
1FC07E00
1FC07E00
1FC0FE00
0FC0FE00
07C0FE00
07C0FC00
07FFF800
1FFE0000
30000000
4003FE00
40001F00
40201F00
60C01F00
1F000000
00000000
00000000
ENDCHAR
STARTCHAR C007A
ENCODING -1 122
SWIDTH 558 0
DWIDTH 24 0
BBX 31 43 0 -8
BITMAP
00000000
00000000
00000000
00000000
00000000
00000000
00000000
00000000
00000000
00000000
00000000
00000000
00000000
00000000
00000000
00000000
00000000
00000000
0C01C000
1FFFE000
1F8FFC00
0E0FF000
0C1FE000
083F8000
007F8000
01FE0000
03FC0000
07F80000
0FF00800
1FC01800
3F803C00
7FE1FC00
1FC07C00
07001800
00000000
00000000
00000000
00000000
00000000
00000000
00000000
00000000
00000000
ENDCHAR
STARTCHAR C007B
ENCODING -1 123
SWIDTH 0 0
DWIDTH 0 0
BBX 0 43 0 -8
BITMAP
00
00
00
00
00
00
00
00
00
00
00
00
00
00
00
00
00
00
00
00
00
00
00
00
00
00
00
00
00
00
00
00
00
00
00
00
00
00
00
00
00
00
00
ENDCHAR
STARTCHAR C007C
ENCODING -1 124
SWIDTH 0 0
DWIDTH 0 0
BBX 0 43 0 -8
BITMAP
00
00
00
00
00
00
00
00
00
00
00
00
00
00
00
00
00
00
00
00
00
00
00
00
00
00
00
00
00
00
00
00
00
00
00
00
00
00
00
00
00
00
00
ENDCHAR
STARTCHAR C007D
ENCODING -1 125
SWIDTH 0 0
DWIDTH 0 0
BBX 0 43 0 -8
BITMAP
00
00
00
00
00
00
00
00
00
00
00
00
00
00
00
00
00
00
00
00
00
00
00
00
00
00
00
00
00
00
00
00
00
00
00
00
00
00
00
00
00
00
00
ENDCHAR
STARTCHAR C007E
ENCODING -1 126
SWIDTH 0 0
DWIDTH 0 0
BBX 0 43 0 -8
BITMAP
00
00
00
00
00
00
00
00
00
00
00
00
00
00
00
00
00
00
00
00
00
00
00
00
00
00
00
00
00
00
00
00
00
00
00
00
00
00
00
00
00
00
00
ENDCHAR
STARTCHAR C007F
ENCODING -1 127
SWIDTH 0 0
DWIDTH 0 0
BBX 0 43 0 -8
BITMAP
00
00
00
00
00
00
00
00
00
00
00
00
00
00
00
00
00
00
00
00
00
00
00
00
00
00
00
00
00
00
00
00
00
00
00
00
00
00
00
00
00
00
00
ENDCHAR
ENDFONT
